<?xml version="1.0" encoding="UTF-8"?>
<svg id="Ebene_1" xmlns="http://www.w3.org/2000/svg" version="1.1" viewBox="0 0 120 64">
  <!-- Generator: Adobe Illustrator 29.7.1, SVG Export Plug-In . SVG Version: 2.1.1 Build 8)  -->
  <defs>
    <style>
      .st0 {
        fill: #fcfcfd;
      }

      .st1 {
        fill: #4a69e8;
      }
    </style>
  </defs>
  <path class="st0" d="M46.8,49.2H12c-6.1,0-11-4.9-11-11V12.2C1,6.1,5.9,1.2,12,1.2h96c6.1,0,11,4.9,11,11v26c0,6.1-4.9,11-11,11h-34.8l-13.2,13.2-13.2-13.2Z"/>
  <path class="st1" d="M108,2.2c5.5,0,10,4.5,10,10v26c0,5.5-4.5,10-10,10h-35.2l-.6.6-12.2,12.2-12.2-12.2-.6-.6H12c-5.5,0-10-4.5-10-10V12.2C2,6.7,6.5,2.2,12,2.2h96M108,.2H12C5.4.2,0,5.6,0,12.2v26c0,6.6,5.4,12,12,12h34.4l13.6,13.6,13.6-13.6h34.4c6.6,0,12-5.4,12-12V12.2c0-6.6-5.4-12-12-12h0Z"/>
</svg>